<svg version="1.1" viewBox="0.0 0.0 782.0236220472441 519.5511811023622" fill="none" stroke="none" stroke-linecap="square" stroke-miterlimit="10" xmlns:xlink="http://www.w3.org/1999/xlink" xmlns="http://www.w3.org/2000/svg"><clipPath id="p.0"><path d="m0 0l782.0236 0l0 519.5512l-782.0236 0l0 -519.5512z" clip-rule="nonzero"/></clipPath><g clip-path="url(#p.0)"><path fill="#000000" fill-opacity="0.0" d="m0 0l782.0236 0l0 519.5512l-782.0236 0z" fill-rule="evenodd"/><path fill="#000000" fill-opacity="0.0" d="m87.79002 168.91077l227.40157 0l0 53.039368l-227.40157 0z" fill-rule="evenodd"/><path fill="#000000" d="m119.89902 183.76326l2.28125 0l0 9.9375q0 2.578125 -0.59375 4.109375q-0.578125 1.515625 -2.109375 2.484375q-1.53125 0.953125 -4.015625 0.953125q-2.421875 0 -3.953125 -0.828125q-1.53125 -0.84375 -2.1875 -2.421875q-0.65625 -1.578125 -0.65625 -4.296875l0 -9.9375l2.265625 0l0 9.921875q0 2.234375 0.421875 3.296875q0.421875 1.0625 1.421875 1.640625q1.015625 0.5625 2.484375 0.5625q2.515625 0 3.578125 -1.125q1.0625 -1.140625 1.0625 -4.375l0 -9.921875zm5.7851562 17.1875l0 -12.453125l1.90625 0l0 1.78125q1.375 -2.0625 3.953125 -2.0625q1.125 0 2.0625 0.40625q0.953125 0.40625 1.421875 1.0625q0.46875 0.65625 0.65625 1.5625q0.125 0.578125 0.125 2.046875l0 7.65625l-2.109375 0l0 -7.578125q0 -1.28125 -0.25 -1.921875q-0.25 -0.640625 -0.875 -1.015625q-0.625 -0.390625 -1.46875 -0.390625q-1.34375 0 -2.328125 0.859375q-0.984375 0.859375 -0.984375 3.25l0 6.796875l-2.109375 0zm21.425781 0l0 -1.578125q-1.1875 1.859375 -3.484375 1.859375q-1.484375 0 -2.734375 -0.8125q-1.25 -0.828125 -1.9375 -2.296875q-0.671875 -1.46875 -0.671875 -3.390625q0 -1.859375 0.609375 -3.375q0.625 -1.515625 1.859375 -2.328125q1.25 -0.8125 2.78125 -0.8125q1.125 0 2.0 0.484375q0.890625 0.46875 1.4375 1.234375l0 -6.171875l2.09375 0l0 17.1875l-1.953125 0zm-6.671875 -6.21875q0 2.390625 1.0 3.578125q1.015625 1.1875 2.390625 1.1875q1.390625 0 2.34375 -1.125q0.96875 -1.140625 0.96875 -3.453125q0 -2.5625 -0.984375 -3.75q-0.984375 -1.203125 -2.421875 -1.203125q-1.40625 0 -2.359375 1.15625q-0.9375 1.140625 -0.9375 3.609375zm11.957031 -8.53125l0 -2.4375l2.109375 0l0 2.4375l-2.109375 0zm0 14.75l0 -12.453125l2.109375 0l0 12.453125l-2.109375 0zm5.3007812 0l0 -12.453125l1.890625 0l0 1.890625q0.734375 -1.328125 1.34375 -1.75q0.625 -0.421875 1.359375 -0.421875q1.0625 0 2.171875 0.6875l-0.734375 1.953125q-0.765625 -0.453125 -1.546875 -0.453125q-0.6875 0 -1.25 0.421875q-0.546875 0.40625 -0.78125 1.140625q-0.34375 1.125 -0.34375 2.46875l0 6.515625l-2.109375 0zm16.539062 -4.015625l2.171875 0.28125q-0.515625 1.90625 -1.90625 2.96875q-1.390625 1.046875 -3.5625 1.046875q-2.734375 0 -4.34375 -1.671875q-1.59375 -1.6875 -1.59375 -4.734375q0 -3.140625 1.609375 -4.875q1.625 -1.734375 4.203125 -1.734375q2.5 0 4.078125 1.703125q1.59375 1.703125 1.59375 4.78125q0 0.1875 -0.015625 0.5625l-9.28125 0q0.109375 2.046875 1.15625 3.140625q1.046875 1.09375 2.609375 1.09375q1.15625 0 1.96875 -0.609375q0.828125 -0.609375 1.3125 -1.953125zm-6.9375 -3.40625l6.953125 0q-0.140625 -1.5625 -0.796875 -2.359375q-1.0 -1.21875 -2.609375 -1.21875q-1.453125 0 -2.453125 0.984375q-0.984375 0.96875 -1.09375 2.59375zm19.878906 2.859375l2.078125 0.265625q-0.34375 2.15625 -1.75 3.375q-1.390625 1.203125 -3.4375 1.203125q-2.546875 0 -4.109375 -1.671875q-1.546875 -1.671875 -1.546875 -4.78125q0 -2.015625 0.671875 -3.53125q0.671875 -1.515625 2.03125 -2.265625q1.359375 -0.765625 2.96875 -0.765625q2.03125 0 3.3125 1.03125q1.296875 1.03125 1.65625 2.90625l-2.046875 0.328125q-0.296875 -1.265625 -1.046875 -1.890625q-0.734375 -0.640625 -1.796875 -0.640625q-1.59375 0 -2.59375 1.15625q-0.984375 1.140625 -0.984375 3.609375q0 2.5 0.953125 3.640625q0.96875 1.140625 2.515625 1.140625q1.234375 0 2.0625 -0.765625q0.84375 -0.765625 1.0625 -2.34375zm8.484375 2.671875l0.3125 1.859375q-0.890625 0.203125 -1.59375 0.203125q-1.15625 0 -1.796875 -0.359375q-0.625 -0.375 -0.890625 -0.96875q-0.25 -0.59375 -0.25 -2.484375l0 -7.171875l-1.546875 0l0 -1.640625l1.546875 0l0 -3.078125l2.09375 -1.265625l0 4.34375l2.125 0l0 1.640625l-2.125 0l0 7.28125q0 0.90625 0.109375 1.171875q0.125 0.25 0.375 0.40625q0.25 0.140625 0.71875 0.140625q0.34375 0 0.921875 -0.078125zm10.589844 -2.125l2.171875 0.28125q-0.515625 1.90625 -1.90625 2.96875q-1.390625 1.046875 -3.5625 1.046875q-2.734375 0 -4.34375 -1.671875q-1.59375 -1.6875 -1.59375 -4.734375q0 -3.140625 1.609375 -4.875q1.625 -1.734375 4.203125 -1.734375q2.5 0 4.078125 1.703125q1.59375 1.703125 1.59375 4.78125q0 0.1875 -0.015625 0.5625l-9.28125 0q0.109375 2.046875 1.15625 3.140625q1.046875 1.09375 2.609375 1.09375q1.15625 0 1.96875 -0.609375q0.828125 -0.609375 1.3125 -1.953125zm-6.9375 -3.40625l6.953125 0q-0.140625 -1.5625 -0.796875 -2.359375q-1.0 -1.21875 -2.609375 -1.21875q-1.453125 0 -2.453125 0.984375q-0.984375 0.96875 -1.09375 2.59375zm19.832031 7.421875l0 -1.578125q-1.1875 1.859375 -3.484375 1.859375q-1.484375 0 -2.734375 -0.8125q-1.25 -0.828125 -1.9375 -2.296875q-0.671875 -1.46875 -0.671875 -3.390625q0 -1.859375 0.609375 -3.375q0.625 -1.515625 1.859375 -2.328125q1.25 -0.8125 2.78125 -0.8125q1.125 0 2.0 0.484375q0.890625 0.46875 1.4375 1.234375l0 -6.171875l2.09375 0l0 17.1875l-1.953125 0zm-6.671875 -6.21875q0 2.390625 1.0 3.578125q1.015625 1.1875 2.390625 1.1875q1.390625 0 2.34375 -1.125q0.96875 -1.140625 0.96875 -3.453125q0 -2.5625 -0.984375 -3.75q-0.984375 -1.203125 -2.421875 -1.203125q-1.40625 0 -2.359375 1.15625q-0.9375 1.140625 -0.9375 3.609375zm26.921875 -0.515625l0 -2.015625l7.28125 -0.015625l0 6.375q-1.671875 1.328125 -3.453125 2.015625q-1.78125 0.671875 -3.65625 0.671875q-2.53125 0 -4.609375 -1.078125q-2.0625 -1.09375 -3.125 -3.140625q-1.046875 -2.0625 -1.046875 -4.59375q0 -2.5 1.046875 -4.671875q1.046875 -2.171875 3.015625 -3.21875q1.96875 -1.0625 4.53125 -1.0625q1.875 0 3.375 0.609375q1.5 0.59375 2.359375 1.671875q0.859375 1.078125 1.296875 2.8125l-2.046875 0.5625q-0.390625 -1.3125 -0.96875 -2.0625q-0.5625 -0.75 -1.640625 -1.203125q-1.0625 -0.453125 -2.359375 -0.453125q-1.5625 0 -2.703125 0.484375q-1.125 0.46875 -1.828125 1.25q-0.6875 0.765625 -1.078125 1.6875q-0.65625 1.59375 -0.65625 3.453125q0 2.296875 0.78125 3.84375q0.796875 1.546875 2.3125 2.296875q1.515625 0.75 3.203125 0.75q1.484375 0 2.890625 -0.5625q1.40625 -0.5625 2.125 -1.21875l0 -3.1875l-5.046875 0zm10.339844 6.734375l0 -12.453125l1.890625 0l0 1.890625q0.734375 -1.328125 1.34375 -1.75q0.625 -0.421875 1.359375 -0.421875q1.0625 0 2.171875 0.6875l-0.734375 1.953125q-0.765625 -0.453125 -1.546875 -0.453125q-0.6875 0 -1.25 0.421875q-0.546875 0.40625 -0.78125 1.140625q-0.34375 1.125 -0.34375 2.46875l0 6.515625l-2.109375 0zm16.132812 -1.53125q-1.171875 0.984375 -2.265625 1.40625q-1.078125 0.40625 -2.3125 0.40625q-2.046875 0 -3.15625 -1.0q-1.09375 -1.0 -1.09375 -2.5625q0 -0.921875 0.40625 -1.671875q0.421875 -0.75 1.09375 -1.203125q0.671875 -0.46875 1.515625 -0.703125q0.625 -0.15625 1.875 -0.3125q2.5625 -0.3125 3.765625 -0.734375q0.015625 -0.421875 0.015625 -0.546875q0 -1.28125 -0.609375 -1.8125q-0.796875 -0.71875 -2.390625 -0.71875q-1.5 0 -2.203125 0.53125q-0.703125 0.515625 -1.046875 1.84375l-2.0625 -0.28125q0.28125 -1.328125 0.921875 -2.140625q0.640625 -0.8125 1.859375 -1.25q1.21875 -0.453125 2.828125 -0.453125q1.59375 0 2.59375 0.375q1.0 0.375 1.46875 0.953125q0.46875 0.5625 0.65625 1.4375q0.09375 0.53125 0.09375 1.9375l0 2.8125q0 2.9375 0.140625 3.71875q0.140625 0.78125 0.53125 1.5l-2.203125 0q-0.328125 -0.65625 -0.421875 -1.53125zm-0.171875 -4.71875q-1.15625 0.46875 -3.453125 0.796875q-1.296875 0.1875 -1.84375 0.421875q-0.53125 0.234375 -0.828125 0.6875q-0.28125 0.453125 -0.28125 1.0q0 0.84375 0.625 1.40625q0.640625 0.5625 1.875 0.5625q1.21875 0 2.171875 -0.53125q0.953125 -0.53125 1.390625 -1.453125q0.34375 -0.71875 0.34375 -2.109375l0 -0.78125zm5.3945312 11.015625l0 -17.21875l1.921875 0l0 1.625q0.6875 -0.953125 1.53125 -1.421875q0.859375 -0.484375 2.078125 -0.484375q1.59375 0 2.8125 0.828125q1.21875 0.8125 1.84375 2.3125q0.625 1.5 0.625 3.28125q0 1.90625 -0.6875 3.4375q-0.6875 1.53125 -2.0 2.34375q-1.296875 0.8125 -2.734375 0.8125q-1.0625 0 -1.90625 -0.4375q-0.828125 -0.453125 -1.375 -1.140625l0 6.0625l-2.109375 0zm1.921875 -10.921875q0 2.40625 0.96875 3.5625q0.96875 1.140625 2.359375 1.140625q1.40625 0 2.40625 -1.1875q1.0 -1.1875 1.0 -3.6875q0 -2.375 -0.984375 -3.5625q-0.96875 -1.1875 -2.328125 -1.1875q-1.359375 0 -2.390625 1.265625q-1.03125 1.25 -1.03125 3.65625zm11.425781 6.15625l0 -17.1875l2.109375 0l0 6.171875q1.484375 -1.71875 3.734375 -1.71875q1.375 0 2.390625 0.546875q1.03125 0.546875 1.46875 1.515625q0.4375 0.953125 0.4375 2.78125l0 7.890625l-2.109375 0l0 -7.890625q0 -1.578125 -0.6875 -2.296875q-0.6875 -0.71875 -1.9375 -0.71875q-0.9375 0 -1.765625 0.484375q-0.828125 0.484375 -1.1875 1.3125q-0.34375 0.828125 -0.34375 2.296875l0 6.8125l-2.109375 0z" fill-rule="nonzero"/><path fill="#000000" fill-opacity="0.0" d="m479.79004 163.30446l227.40155 0l0 53.039368l-227.40155 0z" fill-rule="evenodd"/><path fill="#000000" d="m513.9811 195.34447l0 -17.1875l5.90625 0q2.015625 0 3.0625 0.25q1.484375 0.34375 2.515625 1.234375q1.359375 1.140625 2.03125 2.9375q0.6875 1.78125 0.6875 4.078125q0 1.953125 -0.46875 3.46875q-0.453125 1.515625 -1.171875 2.515625q-0.703125 0.984375 -1.5625 1.546875q-0.84375 0.5625 -2.046875 0.859375q-1.203125 0.296875 -2.765625 0.296875l-6.1875 0zm2.265625 -2.03125l3.671875 0q1.703125 0 2.65625 -0.3125q0.96875 -0.3125 1.546875 -0.890625q0.8125 -0.8125 1.265625 -2.171875q0.453125 -1.375 0.453125 -3.3125q0 -2.703125 -0.890625 -4.140625q-0.890625 -1.453125 -2.15625 -1.9375q-0.90625 -0.359375 -2.9375 -0.359375l-3.609375 0l0 13.125zm14.800781 -12.71875l0 -2.4375l2.109375 0l0 2.4375l-2.109375 0zm0 14.75l0 -12.453125l2.109375 0l0 12.453125l-2.109375 0zm5.3007812 0l0 -12.453125l1.890625 0l0 1.890625q0.734375 -1.328125 1.34375 -1.75q0.625 -0.421875 1.359375 -0.421875q1.0625 0 2.171875 0.6875l-0.734375 1.953125q-0.765625 -0.453125 -1.546875 -0.453125q-0.6875 0 -1.25 0.421875q-0.546875 0.40625 -0.78125 1.140625q-0.34375 1.125 -0.34375 2.46875l0 6.515625l-2.109375 0zm16.539062 -4.015625l2.171875 0.28125q-0.515625 1.90625 -1.90625 2.96875q-1.390625 1.046875 -3.5625 1.046875q-2.734375 0 -4.34375 -1.671875q-1.59375 -1.6875 -1.59375 -4.734375q0 -3.140625 1.609375 -4.875q1.625 -1.734375 4.203125 -1.734375q2.5 0 4.078125 1.703125q1.59375 1.703125 1.59375 4.78125q0 0.1875 -0.015625 0.5625l-9.28125 0q0.109375 2.046875 1.15625 3.140625q1.046875 1.09375 2.609375 1.09375q1.15625 0 1.96875 -0.609375q0.828125 -0.609375 1.3125 -1.953125zm-6.9375 -3.40625l6.953125 0q-0.140625 -1.5625 -0.796875 -2.359375q-1.0 -1.21875 -2.609375 -1.21875q-1.453125 0 -2.453125 0.984375q-0.984375 0.96875 -1.09375 2.59375zm19.878906 2.859375l2.078125 0.265625q-0.34375 2.15625 -1.75 3.375q-1.390625 1.203125 -3.4375 1.203125q-2.546875 0 -4.109375 -1.671875q-1.546875 -1.671875 -1.546875 -4.78125q0 -2.015625 0.671875 -3.53125q0.671875 -1.515625 2.03125 -2.265625q1.359375 -0.765625 2.96875 -0.765625q2.03125 0 3.3125 1.03125q1.296875 1.03125 1.65625 2.90625l-2.046875 0.328125q-0.296875 -1.265625 -1.046875 -1.890625q-0.734375 -0.640625 -1.796875 -0.640625q-1.59375 0 -2.59375 1.15625q-0.984375 1.140625 -0.984375 3.609375q0 2.5 0.953125 3.640625q0.96875 1.140625 2.515625 1.140625q1.234375 0 2.0625 -0.765625q0.84375 -0.765625 1.0625 -2.34375zm8.484375 2.671875l0.3125 1.859375q-0.890625 0.203125 -1.59375 0.203125q-1.15625 0 -1.796875 -0.359375q-0.625 -0.375 -0.890625 -0.96875q-0.25 -0.59375 -0.25 -2.484375l0 -7.171875l-1.546875 0l0 -1.640625l1.546875 0l0 -3.078125l2.09375 -1.265625l0 4.34375l2.125 0l0 1.640625l-2.125 0l0 7.28125q0 0.90625 0.109375 1.171875q0.125 0.25 0.375 0.40625q0.25 0.140625 0.71875 0.140625q0.34375 0 0.921875 -0.078125zm10.589844 -2.125l2.171875 0.28125q-0.515625 1.90625 -1.90625 2.96875q-1.390625 1.046875 -3.5625 1.046875q-2.734375 0 -4.34375 -1.671875q-1.59375 -1.6875 -1.59375 -4.734375q0 -3.140625 1.609375 -4.875q1.625 -1.734375 4.203125 -1.734375q2.5 0 4.078125 1.703125q1.59375 1.703125 1.59375 4.78125q0 0.1875 -0.015625 0.5625l-9.28125 0q0.109375 2.046875 1.15625 3.140625q1.046875 1.09375 2.609375 1.09375q1.15625 0 1.96875 -0.609375q0.828125 -0.609375 1.3125 -1.953125zm-6.9375 -3.40625l6.953125 0q-0.140625 -1.5625 -0.796875 -2.359375q-1.0 -1.21875 -2.609375 -1.21875q-1.453125 0 -2.453125 0.984375q-0.984375 0.96875 -1.09375 2.59375zm19.832031 7.421875l0 -1.578125q-1.1875 1.859375 -3.484375 1.859375q-1.484375 0 -2.734375 -0.8125q-1.25 -0.828125 -1.9375 -2.296875q-0.671875 -1.46875 -0.671875 -3.390625q0 -1.859375 0.609375 -3.375q0.625 -1.515625 1.859375 -2.328125q1.25 -0.8125 2.78125 -0.8125q1.125 0 2.0 0.484375q0.890625 0.46875 1.4375 1.234375l0 -6.171875l2.09375 0l0 17.1875l-1.953125 0zm-6.671875 -6.21875q0 2.390625 1.0 3.578125q1.015625 1.1875 2.390625 1.1875q1.390625 0 2.34375 -1.125q0.96875 -1.140625 0.96875 -3.453125q0 -2.5625 -0.984375 -3.75q-0.984375 -1.203125 -2.421875 -1.203125q-1.40625 0 -2.359375 1.15625q-0.9375 1.140625 -0.9375 3.609375zm26.921875 -0.515625l0 -2.015625l7.28125 -0.015625l0 6.375q-1.671875 1.328125 -3.453125 2.015625q-1.78125 0.671875 -3.65625 0.671875q-2.53125 0 -4.609375 -1.078125q-2.0625 -1.09375 -3.125 -3.140625q-1.046875 -2.0625 -1.046875 -4.59375q0 -2.5 1.046875 -4.671875q1.046875 -2.171875 3.015625 -3.21875q1.96875 -1.0625 4.53125 -1.0625q1.875 0 3.375 0.609375q1.5 0.59375 2.359375 1.671875q0.859375 1.078125 1.296875 2.8125l-2.046875 0.5625q-0.390625 -1.3125 -0.96875 -2.0625q-0.5625 -0.75 -1.640625 -1.203125q-1.0625 -0.453125 -2.359375 -0.453125q-1.5625 0 -2.703125 0.484375q-1.125 0.46875 -1.828125 1.25q-0.6875 0.765625 -1.078125 1.6875q-0.65625 1.59375 -0.65625 3.453125q0 2.296875 0.78125 3.84375q0.796875 1.546875 2.3125 2.296875q1.515625 0.75 3.203125 0.75q1.484375 0 2.890625 -0.5625q1.40625 -0.5625 2.125 -1.21875l0 -3.1875l-5.046875 0zm10.339844 6.734375l0 -12.453125l1.890625 0l0 1.890625q0.734375 -1.328125 1.34375 -1.75q0.625 -0.421875 1.359375 -0.421875q1.0625 0 2.171875 0.6875l-0.734375 1.953125q-0.765625 -0.453125 -1.546875 -0.453125q-0.6875 0 -1.25 0.421875q-0.546875 0.40625 -0.78125 1.140625q-0.34375 1.125 -0.34375 2.46875l0 6.515625l-2.109375 0zm16.132812 -1.53125q-1.171875 0.984375 -2.265625 1.40625q-1.078125 0.40625 -2.3125 0.40625q-2.046875 0 -3.15625 -1.0q-1.09375 -1.0 -1.09375 -2.5625q0 -0.921875 0.40625 -1.671875q0.421875 -0.75 1.09375 -1.203125q0.671875 -0.46875 1.515625 -0.703125q0.625 -0.15625 1.875 -0.3125q2.5625 -0.3125 3.765625 -0.734375q0.015625 -0.421875 0.015625 -0.546875q0 -1.28125 -0.609375 -1.8125q-0.796875 -0.71875 -2.390625 -0.71875q-1.5 0 -2.203125 0.53125q-0.703125 0.515625 -1.046875 1.84375l-2.0625 -0.28125q0.28125 -1.328125 0.921875 -2.140625q0.640625 -0.8125 1.859375 -1.25q1.21875 -0.453125 2.828125 -0.453125q1.59375 0 2.59375 0.375q1.0 0.375 1.46875 0.953125q0.46875 0.5625 0.65625 1.4375q0.09375 0.53125 0.09375 1.9375l0 2.8125q0 2.9375 0.140625 3.71875q0.140625 0.78125 0.53125 1.5l-2.203125 0q-0.328125 -0.65625 -0.421875 -1.53125zm-0.171875 -4.71875q-1.15625 0.46875 -3.453125 0.796875q-1.296875 0.1875 -1.84375 0.421875q-0.53125 0.234375 -0.828125 0.6875q-0.28125 0.453125 -0.28125 1.0q0 0.84375 0.625 1.40625q0.640625 0.5625 1.875 0.5625q1.21875 0 2.171875 -0.53125q0.953125 -0.53125 1.390625 -1.453125q0.34375 -0.71875 0.34375 -2.109375l0 -0.78125zm5.3945312 11.015625l0 -17.21875l1.921875 0l0 1.625q0.6875 -0.953125 1.53125 -1.421875q0.859375 -0.484375 2.078125 -0.484375q1.59375 0 2.8125 0.828125q1.21875 0.8125 1.84375 2.3125q0.625 1.5 0.625 3.28125q0 1.90625 -0.6875 3.4375q-0.6875 1.53125 -2.0 2.34375q-1.296875 0.8125 -2.734375 0.8125q-1.0625 0 -1.90625 -0.4375q-0.828125 -0.453125 -1.375 -1.140625l0 6.0625l-2.109375 0zm1.921875 -10.921875q0 2.40625 0.96875 3.5625q0.96875 1.140625 2.359375 1.140625q1.40625 0 2.40625 -1.1875q1.0 -1.1875 1.0 -3.6875q0 -2.375 -0.984375 -3.5625q-0.96875 -1.1875 -2.328125 -1.1875q-1.359375 0 -2.390625 1.265625q-1.03125 1.25 -1.03125 3.65625zm11.425781 6.15625l0 -17.1875l2.109375 0l0 6.171875q1.484375 -1.71875 3.734375 -1.71875q1.375 0 2.390625 0.546875q1.03125 0.546875 1.46875 1.515625q0.4375 0.953125 0.4375 2.78125l0 7.890625l-2.109375 0l0 -7.890625q0 -1.578125 -0.6875 -2.296875q-0.6875 -0.71875 -1.9375 -0.71875q-0.9375 0 -1.765625 0.484375q-0.828125 0.484375 -1.1875 1.3125q-0.34375 0.828125 -0.34375 2.296875l0 6.8125l-2.109375 0z" fill-rule="nonzero"/><path fill="#b7b7b7" d="m62.125984 86.383644c0 -12.906937 10.463142 -23.370079 23.370079 -23.370079c6.1981277 0 12.142403 2.4621964 16.525139 6.84494c4.382744 4.382736 6.84494 10.327011 6.84494 16.525139c0 12.906937 -10.463142 23.370079 -23.370079 23.370079c-12.906937 0 -23.370079 -10.463142 -23.370079 -23.370079z" fill-rule="evenodd"/><path fill="#ffffff" d="m92.16584 93.30364l-2.9375 0l-1.171875 -3.03125l-5.328125 0l-1.109375 3.03125l-2.859375 0l5.203125 -13.359375l2.84375 0l5.359375 13.359375zm-4.96875 -5.28125l-1.84375 -4.953125l-1.796875 4.953125l3.640625 0z" fill-rule="nonzero"/><path fill="#b7b7b7" d="m178.12073 40.889763c0 -12.906937 10.46315 -23.370077 23.370087 -23.370077c6.1981354 0 12.142395 2.4621964 16.525146 6.8449364c4.382736 4.38274 6.844925 10.327013 6.844925 16.52514c0 12.90694 -10.463135 23.370079 -23.370071 23.370079c-12.906937 0 -23.370087 -10.463139 -23.370087 -23.370079z" fill-rule="evenodd"/><path fill="#ffffff" d="m196.11371 34.450386l5.34375 0q1.59375 0 2.359375 0.140625q0.78125 0.125 1.390625 0.546875q0.625 0.421875 1.03125 1.125q0.40625 0.6875 0.40625 1.546875q0 0.9375 -0.5 1.734375q-0.5 0.78125 -1.375 1.171875q1.21875 0.359375 1.875 1.21875q0.65625 0.84375 0.65625 2.0q0 0.921875 -0.421875 1.78125q-0.421875 0.859375 -1.15625 1.375q-0.734375 0.515625 -1.796875 0.625q-0.6875 0.078125 -3.265625 0.09375l-4.546875 0l0 -13.359375zm2.703125 2.234375l0 3.078125l1.765625 0q1.578125 0 1.953125 -0.046875q0.703125 -0.078125 1.09375 -0.46875q0.40625 -0.40625 0.40625 -1.046875q0 -0.625 -0.34375 -1.0q-0.34375 -0.390625 -1.015625 -0.484375q-0.40625 -0.03125 -2.3125 -0.03125l-1.546875 0zm0 5.296875l0 3.578125l2.5 0q1.453125 0 1.84375 -0.078125q0.609375 -0.109375 0.984375 -0.53125q0.375 -0.421875 0.375 -1.140625q0 -0.59375 -0.296875 -1.015625q-0.28125 -0.421875 -0.84375 -0.609375q-0.546875 -0.203125 -2.390625 -0.203125l-2.171875 0z" fill-rule="nonzero"/><path fill="#b7b7b7" d="m294.11548 86.383644c0 -12.906937 10.463135 -23.370079 23.370087 -23.370079c6.19812 0 12.142395 2.4621964 16.525146 6.84494c4.382721 4.382736 6.84494 10.327011 6.84494 16.525139c0 12.906937 -10.463135 23.370079 -23.370087 23.370079c-12.906952 0 -23.370087 -10.463142 -23.370087 -23.370079z" fill-rule="evenodd"/><path fill="#ffffff" d="m312.09283 79.94427l4.9375 0q1.65625 0 2.53125 0.265625q1.1875 0.34375 2.015625 1.234375q0.84375 0.875 1.28125 2.15625q0.4375 1.28125 0.4375 3.15625q0 1.640625 -0.40625 2.84375q-0.5 1.453125 -1.4375 2.359375q-0.703125 0.671875 -1.890625 1.0625q-0.890625 0.28125 -2.390625 0.28125l-5.078125 0l0 -13.359375zm2.703125 2.265625l0 8.84375l2.015625 0q1.125 0 1.625 -0.125q0.65625 -0.171875 1.078125 -0.5625q0.4375 -0.390625 0.703125 -1.28125q0.28125 -0.90625 0.28125 -2.453125q0 -1.546875 -0.28125 -2.375q-0.265625 -0.828125 -0.765625 -1.28125q-0.484375 -0.46875 -1.234375 -0.640625q-0.5625 -0.125 -2.21875 -0.125l-1.203125 0z" fill-rule="nonzero"/><path fill="#b7b7b7" d="m178.12073 130.2546c0 -12.906937 10.46315 -23.370079 23.370087 -23.370079c6.1981354 0 12.142395 2.4621964 16.525146 6.84494c4.382736 4.382736 6.844925 10.327011 6.844925 16.525139c0 12.906937 -10.463135 23.370071 -23.370071 23.370071c-12.906937 0 -23.370087 -10.463135 -23.370087 -23.370071z" fill-rule="evenodd"/><path fill="#ffffff" d="m204.66058 132.26834l2.609375 0.828125q-0.59375 2.1875 -2.0 3.25q-1.390625 1.0625 -3.546875 1.0625q-2.65625 0 -4.375 -1.8125q-1.703125 -1.828125 -1.703125 -4.984375q0 -3.328125 1.71875 -5.171875q1.71875 -1.84375 4.515625 -1.84375q2.453125 0 3.984375 1.4375q0.921875 0.859375 1.375 2.46875l-2.671875 0.640625q-0.234375 -1.046875 -0.984375 -1.640625q-0.75 -0.609375 -1.828125 -0.609375q-1.484375 0 -2.421875 1.078125q-0.921875 1.0625 -0.921875 3.4375q0 2.53125 0.90625 3.609375q0.921875 1.078125 2.375 1.078125q1.078125 0 1.84375 -0.671875q0.78125 -0.6875 1.125 -2.15625z" fill-rule="nonzero"/><path fill="#000000" fill-opacity="0.0" d="m102.0212 69.858505l76.09449 -28.97638" fill-rule="evenodd"/><path stroke="#000000" stroke-width="2.0" stroke-linejoin="round" stroke-linecap="butt" d="m102.0212 69.858505l76.09449 -28.97638" fill-rule="evenodd"/><path fill="#000000" fill-opacity="0.0" d="m102.0212 102.90878l76.09449 27.338593" fill-rule="evenodd"/><path stroke="#000000" stroke-width="2.0" stroke-linejoin="round" stroke-linecap="butt" d="m102.0212 102.90878l76.09449 27.338593" fill-rule="evenodd"/><path fill="#000000" fill-opacity="0.0" d="m224.86089 40.889763l76.0945 28.97638" fill-rule="evenodd"/><path stroke="#000000" stroke-width="2.0" stroke-linejoin="round" stroke-linecap="butt" d="m224.86089 40.889763l76.0945 28.97638" fill-rule="evenodd"/><path fill="#000000" fill-opacity="0.0" d="m224.86089 130.2546l76.0945 -27.338585" fill-rule="evenodd"/><path stroke="#000000" stroke-width="2.0" stroke-linejoin="round" stroke-linecap="butt" d="m224.86089 130.2546l76.0945 -27.338585" fill-rule="evenodd"/><path fill="#b7b7b7" d="m454.12598 86.383644c0 -12.906937 10.463135 -23.370079 23.370087 -23.370079c6.19812 0 12.142395 2.4621964 16.525146 6.84494c4.382721 4.382736 6.84494 10.327011 6.84494 16.525139c0 12.906937 -10.463135 23.370079 -23.370087 23.370079c-12.906952 0 -23.370087 -10.463142 -23.370087 -23.370079z" fill-rule="evenodd"/><path fill="#ffffff" d="m484.16583 93.30364l-2.9375 0l-1.171875 -3.03125l-5.328125 0l-1.109375 3.03125l-2.859375 0l5.203125 -13.359375l2.84375 0l5.359375 13.359375zm-4.96875 -5.28125l-1.84375 -4.953125l-1.796875 4.953125l3.640625 0z" fill-rule="nonzero"/><path fill="#b7b7b7" d="m570.1207 40.889763c0 -12.906937 10.463135 -23.370077 23.370056 -23.370077c6.198181 0 12.142456 2.4621964 16.525146 6.8449364c4.3827515 4.38274 6.8449707 10.327013 6.8449707 16.52514c0 12.90694 -10.463135 23.370079 -23.370117 23.370079c-12.906921 0 -23.370056 -10.463139 -23.370056 -23.370079z" fill-rule="evenodd"/><path fill="#ffffff" d="m588.1137 34.450386l5.34375 0q1.59375 0 2.359375 0.140625q0.78125 0.125 1.390625 0.546875q0.625 0.421875 1.03125 1.125q0.40625 0.6875 0.40625 1.546875q0 0.9375 -0.5 1.734375q-0.5 0.78125 -1.375 1.171875q1.21875 0.359375 1.875 1.21875q0.65625 0.84375 0.65625 2.0q0 0.921875 -0.421875 1.78125q-0.421875 0.859375 -1.15625 1.375q-0.734375 0.515625 -1.796875 0.625q-0.6875 0.078125 -3.265625 0.09375l-4.546875 0l0 -13.359375zm2.703125 2.234375l0 3.078125l1.765625 0q1.578125 0 1.953125 -0.046875q0.703125 -0.078125 1.09375 -0.46875q0.40625 -0.40625 0.40625 -1.046875q0 -0.625 -0.34375 -1.0q-0.34375 -0.390625 -1.015625 -0.484375q-0.40625 -0.03125 -2.3125 -0.03125l-1.546875 0zm0 5.296875l0 3.578125l2.5 0q1.453125 0 1.84375 -0.078125q0.609375 -0.109375 0.984375 -0.53125q0.375 -0.421875 0.375 -1.140625q0 -0.59375 -0.296875 -1.015625q-0.28125 -0.421875 -0.84375 -0.609375q-0.546875 -0.203125 -2.390625 -0.203125l-2.171875 0z" fill-rule="nonzero"/><path fill="#b7b7b7" d="m686.1155 86.383644c0 -12.906937 10.463135 -23.370079 23.370056 -23.370079c6.198181 0 12.142456 2.4621964 16.525146 6.84494c4.3827515 4.382736 6.8449707 10.327011 6.8449707 16.525139c0 12.906937 -10.463135 23.370079 -23.370117 23.370079c-12.906921 0 -23.370056 -10.463142 -23.370056 -23.370079z" fill-rule="evenodd"/><path fill="#ffffff" d="m704.09283 79.94427l4.9375 0q1.65625 0 2.53125 0.265625q1.1875 0.34375 2.015625 1.234375q0.84375 0.875 1.28125 2.15625q0.4375 1.28125 0.4375 3.15625q0 1.640625 -0.40625 2.84375q-0.5 1.453125 -1.4375 2.359375q-0.703125 0.671875 -1.890625 1.0625q-0.890625 0.28125 -2.390625 0.28125l-5.078125 0l0 -13.359375zm2.703125 2.265625l0 8.84375l2.015625 0q1.125 0 1.625 -0.125q0.65625 -0.171875 1.078125 -0.5625q0.4375 -0.390625 0.703125 -1.28125q0.28125 -0.90625 0.28125 -2.453125q0 -1.546875 -0.28125 -2.375q-0.265625 -0.828125 -0.765625 -1.28125q-0.484375 -0.46875 -1.234375 -0.640625q-0.5625 -0.125 -2.21875 -0.125l-1.203125 0z" fill-rule="nonzero"/><path fill="#b7b7b7" d="m570.1207 130.2546c0 -12.906937 10.463135 -23.370079 23.370056 -23.370079c6.198181 0 12.142456 2.4621964 16.525146 6.84494c4.3827515 4.382736 6.8449707 10.327011 6.8449707 16.525139c0 12.906937 -10.463135 23.370071 -23.370117 23.370071c-12.906921 0 -23.370056 -10.463135 -23.370056 -23.370071z" fill-rule="evenodd"/><path fill="#ffffff" d="m596.6606 132.26834l2.609375 0.828125q-0.59375 2.1875 -2.0 3.25q-1.390625 1.0625 -3.546875 1.0625q-2.65625 0 -4.375 -1.8125q-1.703125 -1.828125 -1.703125 -4.984375q0 -3.328125 1.71875 -5.171875q1.71875 -1.84375 4.515625 -1.84375q2.453125 0 3.984375 1.4375q0.921875 0.859375 1.375 2.46875l-2.671875 0.640625q-0.234375 -1.046875 -0.984375 -1.640625q-0.75 -0.609375 -1.828125 -0.609375q-1.484375 0 -2.421875 1.078125q-0.921875 1.0625 -0.921875 3.4375q0 2.53125 0.90625 3.609375q0.921875 1.078125 2.375 1.078125q1.078125 0 1.84375 -0.671875q0.78125 -0.6875 1.125 -2.15625z" fill-rule="nonzero"/><path fill="#000000" fill-opacity="0.0" d="m494.0212 69.858505l76.09451 -28.97638" fill-rule="evenodd"/><path stroke="#000000" stroke-width="2.0" stroke-linejoin="round" stroke-linecap="butt" d="m494.0212 69.858505l69.688995 -26.537209" fill-rule="evenodd"/><path fill="#000000" stroke="#000000" stroke-width="2.0" stroke-linecap="butt" d="m563.7102 43.321297l-1.3015137 2.9023323l4.9746094 -4.3010178l-6.5754395 0.09716034z" fill-rule="evenodd"/><path fill="#000000" fill-opacity="0.0" d="m494.0212 102.90878l76.09451 27.338593" fill-rule="evenodd"/><path stroke="#000000" stroke-width="2.0" stroke-linejoin="round" stroke-linecap="butt" d="m494.0212 102.90878l69.64395 25.021103" fill-rule="evenodd"/><path fill="#000000" stroke="#000000" stroke-width="2.0" stroke-linecap="butt" d="m563.66516 127.929886l-2.8771362 1.3562317l6.57605 -0.027328491l-5.0551147 -4.2060776z" fill-rule="evenodd"/><path fill="#000000" fill-opacity="0.0" d="m616.8609 40.889763l76.09448 28.97638" fill-rule="evenodd"/><path stroke="#000000" stroke-width="2.0" stroke-linejoin="round" stroke-linecap="butt" d="m616.8609 40.889763l69.689026 26.537209" fill-rule="evenodd"/><path fill="#000000" stroke="#000000" stroke-width="2.0" stroke-linecap="butt" d="m686.5499 67.42697l-2.9023438 1.3015213l6.5753784 0.09716797l-4.9746094 -4.3010254z" fill-rule="evenodd"/><path fill="#000000" fill-opacity="0.0" d="m67.71129 429.66666l267.55908 0l0 75.49606l-267.55908 0z" fill-rule="evenodd"/><path fill="#000000" d="m86.64902 461.70667l0 -17.1875l5.90625 0q2.015625 0 3.0625 0.25q1.484375 0.34375 2.515625 1.234375q1.359375 1.140625 2.03125 2.9375q0.6875 1.78125 0.6875 4.078125q0 1.953125 -0.46875 3.46875q-0.453125 1.515625 -1.171875 2.515625q-0.703125 0.984375 -1.5625 1.546875q-0.84375 0.5625 -2.046875 0.859375q-1.203125 0.296875 -2.765625 0.296875l-6.1875 0zm2.265625 -2.03125l3.671875 0q1.703125 0 2.65625 -0.3125q0.96875 -0.3125 1.546875 -0.890625q0.8125 -0.8125 1.265625 -2.171875q0.453125 -1.375 0.453125 -3.3125q0 -2.703125 -0.890625 -4.140625q-0.890625 -1.453125 -2.15625 -1.9375q-0.90625 -0.359375 -2.9375 -0.359375l-3.609375 0l0 13.125zm14.800781 -12.71875l0 -2.4375l2.109375 0l0 2.4375l-2.109375 0zm0 14.75l0 -12.453125l2.109375 0l0 12.453125l-2.109375 0zm5.3007812 0l0 -12.453125l1.890625 0l0 1.890625q0.734375 -1.328125 1.34375 -1.75q0.625 -0.421875 1.359375 -0.421875q1.0625 0 2.171875 0.6875l-0.734375 1.953125q-0.765625 -0.453125 -1.546875 -0.453125q-0.6875 0 -1.25 0.421875q-0.546875 0.40625 -0.78125 1.140625q-0.34375 1.125 -0.34375 2.46875l0 6.515625l-2.109375 0zm16.539062 -4.015625l2.171875 0.28125q-0.515625 1.90625 -1.90625 2.96875q-1.390625 1.046875 -3.5625 1.046875q-2.734375 0 -4.34375 -1.671875q-1.59375 -1.6875 -1.59375 -4.734375q0 -3.140625 1.609375 -4.875q1.625 -1.734375 4.203125 -1.734375q2.5 0 4.078125 1.703125q1.59375 1.703125 1.59375 4.78125q0 0.1875 -0.015625 0.5625l-9.28125 0q0.109375 2.046875 1.15625 3.140625q1.046875 1.09375 2.609375 1.09375q1.15625 0 1.96875 -0.609375q0.828125 -0.609375 1.3125 -1.953125zm-6.9375 -3.40625l6.953125 0q-0.140625 -1.5625 -0.796875 -2.359375q-1.0 -1.21875 -2.609375 -1.21875q-1.453125 0 -2.453125 0.984375q-0.984375 0.96875 -1.09375 2.59375zm19.878906 2.859375l2.078125 0.265625q-0.34375 2.15625 -1.75 3.375q-1.390625 1.203125 -3.4375 1.203125q-2.546875 0 -4.109375 -1.671875q-1.546875 -1.671875 -1.546875 -4.78125q0 -2.015625 0.671875 -3.53125q0.671875 -1.515625 2.03125 -2.265625q1.359375 -0.765625 2.96875 -0.765625q2.03125 0 3.3125 1.03125q1.296875 1.03125 1.65625 2.90625l-2.046875 0.328125q-0.296875 -1.265625 -1.046875 -1.890625q-0.734375 -0.640625 -1.796875 -0.640625q-1.59375 0 -2.59375 1.15625q-0.984375 1.140625 -0.984375 3.609375q0 2.5 0.953125 3.640625q0.96875 1.140625 2.515625 1.140625q1.234375 0 2.0625 -0.765625q0.84375 -0.765625 1.0625 -2.34375zm8.484375 2.671875l0.3125 1.859375q-0.890625 0.203125 -1.59375 0.203125q-1.15625 0 -1.796875 -0.359375q-0.625 -0.375 -0.890625 -0.96875q-0.25 -0.59375 -0.25 -2.484375l0 -7.171875l-1.546875 0l0 -1.640625l1.546875 0l0 -3.078125l2.09375 -1.265625l0 4.34375l2.125 0l0 1.640625l-2.125 0l0 7.28125q0 0.90625 0.109375 1.171875q0.125 0.25 0.375 0.40625q0.25 0.140625 0.71875 0.140625q0.34375 0 0.921875 -0.078125zm10.589844 -2.125l2.171875 0.28125q-0.515625 1.90625 -1.90625 2.96875q-1.390625 1.046875 -3.5625 1.046875q-2.734375 0 -4.34375 -1.671875q-1.59375 -1.6875 -1.59375 -4.734375q0 -3.140625 1.609375 -4.875q1.625 -1.734375 4.203125 -1.734375q2.5 0 4.078125 1.703125q1.59375 1.703125 1.59375 4.78125q0 0.1875 -0.015625 0.5625l-9.28125 0q0.109375 2.046875 1.15625 3.140625q1.046875 1.09375 2.609375 1.09375q1.15625 0 1.96875 -0.609375q0.828125 -0.609375 1.3125 -1.953125zm-6.9375 -3.40625l6.953125 0q-0.140625 -1.5625 -0.796875 -2.359375q-1.0 -1.21875 -2.609375 -1.21875q-1.453125 0 -2.453125 0.984375q-0.984375 0.96875 -1.09375 2.59375zm19.832031 7.421875l0 -1.578125q-1.1875 1.859375 -3.484375 1.859375q-1.484375 0 -2.734375 -0.8125q-1.25 -0.828125 -1.9375 -2.296875q-0.671875 -1.46875 -0.671875 -3.390625q0 -1.859375 0.609375 -3.375q0.625 -1.515625 1.859375 -2.328125q1.25 -0.8125 2.78125 -0.8125q1.125 0 2.0 0.484375q0.890625 0.46875 1.4375 1.234375l0 -6.171875l2.09375 0l0 17.1875l-1.953125 0zm-6.671875 -6.21875q0 2.390625 1.0 3.578125q1.015625 1.1875 2.390625 1.1875q1.390625 0 2.34375 -1.125q0.96875 -1.140625 0.96875 -3.453125q0 -2.5625 -0.984375 -3.75q-0.984375 -1.203125 -2.421875 -1.203125q-1.40625 0 -2.359375 1.15625q-0.9375 1.140625 -0.9375 3.609375zm31.140625 0.1875l2.28125 0.578125q-0.71875 2.796875 -2.578125 4.28125q-1.859375 1.46875 -4.546875 1.46875q-2.765625 0 -4.515625 -1.125q-1.734375 -1.140625 -2.640625 -3.28125q-0.90625 -2.15625 -0.90625 -4.609375q0 -2.6875 1.015625 -4.6875q1.03125 -2.0 2.921875 -3.03125q1.890625 -1.03125 4.171875 -1.03125q2.578125 0 4.328125 1.3125q1.765625 1.3125 2.453125 3.6875l-2.234375 0.53125q-0.609375 -1.875 -1.75 -2.734375q-1.125 -0.859375 -2.84375 -0.859375q-1.984375 0 -3.3125 0.953125q-1.328125 0.953125 -1.875 2.546875q-0.53125 1.59375 -0.53125 3.296875q0 2.1875 0.625 3.828125q0.640625 1.640625 1.984375 2.453125q1.359375 0.796875 2.921875 0.796875q1.921875 0 3.234375 -1.09375q1.328125 -1.109375 1.796875 -3.28125zm4.7070312 10.828125l-0.234375 -1.984375q0.703125 0.1875 1.21875 0.1875q0.703125 0 1.125 -0.234375q0.421875 -0.234375 0.6875 -0.65625q0.203125 -0.3125 0.640625 -1.5625q0.0625 -0.1875 0.1875 -0.515625l-4.71875 -12.484375l2.265625 0l2.59375 7.21875q0.5 1.359375 0.90625 2.875q0.359375 -1.453125 0.859375 -2.828125l2.671875 -7.265625l2.109375 0l-4.734375 12.671875q-0.765625 2.046875 -1.1875 2.8125q-0.5625 1.046875 -1.296875 1.53125q-0.71875 0.484375 -1.734375 0.484375q-0.609375 0 -1.359375 -0.25zm20.21875 -9.359375l2.078125 0.265625q-0.34375 2.15625 -1.75 3.375q-1.390625 1.203125 -3.4375 1.203125q-2.546875 0 -4.109375 -1.671875q-1.546875 -1.671875 -1.546875 -4.78125q0 -2.015625 0.671875 -3.53125q0.671875 -1.515625 2.03125 -2.265625q1.359375 -0.765625 2.96875 -0.765625q2.03125 0 3.3125 1.03125q1.296875 1.03125 1.65625 2.90625l-2.046875 0.328125q-0.296875 -1.265625 -1.046875 -1.890625q-0.734375 -0.640625 -1.796875 -0.640625q-1.59375 0 -2.59375 1.15625q-0.984375 1.140625 -0.984375 3.609375q0 2.5 0.953125 3.640625q0.96875 1.140625 2.515625 1.140625q1.234375 0 2.0625 -0.765625q0.84375 -0.765625 1.0625 -2.34375zm3.828125 4.5625l0 -17.1875l2.109375 0l0 17.1875l-2.109375 0zm5.3945312 -14.75l0 -2.4375l2.109375 0l0 2.4375l-2.109375 0zm0 14.75l0 -12.453125l2.109375 0l0 12.453125l-2.109375 0zm13.441406 -4.5625l2.078125 0.265625q-0.34375 2.15625 -1.75 3.375q-1.390625 1.203125 -3.4375 1.203125q-2.546875 0 -4.109375 -1.671875q-1.546875 -1.671875 -1.546875 -4.78125q0 -2.015625 0.671875 -3.53125q0.671875 -1.515625 2.03125 -2.265625q1.359375 -0.765625 2.96875 -0.765625q2.03125 0 3.3125 1.03125q1.296875 1.03125 1.65625 2.90625l-2.046875 0.328125q-0.296875 -1.265625 -1.046875 -1.890625q-0.734375 -0.640625 -1.796875 -0.640625q-1.59375 0 -2.59375 1.15625q-0.984375 1.140625 -0.984375 3.609375q0 2.5 0.953125 3.640625q0.96875 1.140625 2.515625 1.140625q1.234375 0 2.0625 -0.765625q0.84375 -0.765625 1.0625 -2.34375zm18.855469 -2.171875l0 -2.015625l7.28125 -0.015625l0 6.375q-1.671875 1.328125 -3.453125 2.015625q-1.78125 0.671875 -3.65625 0.671875q-2.53125 0 -4.609375 -1.078125q-2.0625 -1.09375 -3.125 -3.140625q-1.046875 -2.0625 -1.046875 -4.59375q0 -2.5 1.046875 -4.671875q1.046875 -2.171875 3.015625 -3.21875q1.96875 -1.0625 4.53125 -1.0625q1.875 0 3.375 0.609375q1.5 0.59375 2.359375 1.671875q0.859375 1.078125 1.296875 2.8125l-2.046875 0.5625q-0.390625 -1.3125 -0.96875 -2.0625q-0.5625 -0.75 -1.640625 -1.203125q-1.0625 -0.453125 -2.359375 -0.453125q-1.5625 0 -2.703125 0.484375q-1.125 0.46875 -1.828125 1.25q-0.6875 0.765625 -1.078125 1.6875q-0.65625 1.59375 -0.65625 3.453125q0 2.296875 0.78125 3.84375q0.796875 1.546875 2.3125 2.296875q1.515625 0.75 3.203125 0.75q1.484375 0 2.890625 -0.5625q1.40625 -0.5625 2.125 -1.21875l0 -3.1875l-5.046875 0zm10.339844 6.734375l0 -12.453125l1.890625 0l0 1.890625q0.734375 -1.328125 1.34375 -1.75q0.625 -0.421875 1.359375 -0.421875q1.0625 0 2.171875 0.6875l-0.734375 1.953125q-0.765625 -0.453125 -1.546875 -0.453125q-0.6875 0 -1.25 0.421875q-0.546875 0.40625 -0.78125 1.140625q-0.34375 1.125 -0.34375 2.46875l0 6.515625l-2.109375 0zm16.132812 -1.53125q-1.171875 0.984375 -2.265625 1.40625q-1.078125 0.40625 -2.3125 0.40625q-2.046875 0 -3.15625 -1.0q-1.09375 -1.0 -1.09375 -2.5625q0 -0.921875 0.40625 -1.671875q0.421875 -0.75 1.09375 -1.203125q0.671875 -0.46875 1.515625 -0.703125q0.625 -0.15625 1.875 -0.3125q2.5625 -0.3125 3.765625 -0.734375q0.015625 -0.421875 0.015625 -0.546875q0 -1.28125 -0.609375 -1.8125q-0.796875 -0.71875 -2.390625 -0.71875q-1.5 0 -2.203125 0.53125q-0.703125 0.515625 -1.046875 1.84375l-2.0625 -0.28125q0.28125 -1.328125 0.921875 -2.140625q0.640625 -0.8125 1.859375 -1.25q1.21875 -0.453125 2.828125 -0.453125q1.59375 0 2.59375 0.375q1.0 0.375 1.46875 0.953125q0.46875 0.5625 0.65625 1.4375q0.09375 0.53125 0.09375 1.9375l0 2.8125q0 2.9375 0.140625 3.71875q0.140625 0.78125 0.53125 1.5l-2.203125 0q-0.328125 -0.65625 -0.421875 -1.53125zm-0.171875 -4.71875q-1.15625 0.46875 -3.453125 0.796875q-1.296875 0.1875 -1.84375 0.421875q-0.53125 0.234375 -0.828125 0.6875q-0.28125 0.453125 -0.28125 1.0q0 0.84375 0.625 1.40625q0.640625 0.5625 1.875 0.5625q1.21875 0 2.171875 -0.53125q0.953125 -0.53125 1.390625 -1.453125q0.34375 -0.71875 0.34375 -2.109375l0 -0.78125zm5.3945312 11.015625l0 -17.21875l1.921875 0l0 1.625q0.6875 -0.953125 1.53125 -1.421875q0.859375 -0.484375 2.078125 -0.484375q1.59375 0 2.8125 0.828125q1.21875 0.8125 1.84375 2.3125q0.625 1.5 0.625 3.28125q0 1.90625 -0.6875 3.4375q-0.6875 1.53125 -2.0 2.34375q-1.296875 0.8125 -2.734375 0.8125q-1.0625 0 -1.90625 -0.4375q-0.828125 -0.453125 -1.375 -1.140625l0 6.0625l-2.109375 0zm1.921875 -10.921875q0 2.40625 0.96875 3.5625q0.96875 1.140625 2.359375 1.140625q1.40625 0 2.40625 -1.1875q1.0 -1.1875 1.0 -3.6875q0 -2.375 -0.984375 -3.5625q-0.96875 -1.1875 -2.328125 -1.1875q-1.359375 0 -2.390625 1.265625q-1.03125 1.25 -1.03125 3.65625zm11.425781 6.15625l0 -17.1875l2.109375 0l0 6.171875q1.484375 -1.71875 3.734375 -1.71875q1.375 0 2.390625 0.546875q1.03125 0.546875 1.46875 1.515625q0.4375 0.953125 0.4375 2.78125l0 7.890625l-2.109375 0l0 -7.890625q0 -1.578125 -0.6875 -2.296875q-0.6875 -0.71875 -1.9375 -0.71875q-0.9375 0 -1.765625 0.484375q-0.828125 0.484375 -1.1875 1.3125q-0.34375 0.828125 -0.34375 2.296875l0 6.8125l-2.109375 0z" fill-rule="nonzero"/><path fill="#000000" d="m172.44199 495.55356q-1.734375 -2.203125 -2.953125 -5.15625q-1.203125 -2.953125 -1.203125 -6.109375q0 -2.796875 0.90625 -5.34375q1.046875 -2.96875 3.25 -5.90625l1.515625 0q-1.421875 2.4375 -1.875 3.46875q-0.71875 1.625 -1.125 3.375q-0.5 2.203125 -0.5 4.40625q0 5.640625 3.5 11.265625l-1.515625 0zm4.2421875 -5.046875l0 -17.1875l5.90625 0q2.015625 0 3.0625 0.25q1.484375 0.34375 2.515625 1.234375q1.359375 1.140625 2.03125 2.9375q0.6875 1.78125 0.6875 4.078125q0 1.953125 -0.46875 3.46875q-0.453125 1.515625 -1.171875 2.515625q-0.703125 0.984375 -1.5625 1.546875q-0.84375 0.5625 -2.046875 0.859375q-1.203125 0.296875 -2.765625 0.296875l-6.1875 0zm2.265625 -2.03125l3.671875 0q1.703125 0 2.65625 -0.3125q0.96875 -0.3125 1.546875 -0.890625q0.8125 -0.8125 1.265625 -2.171875q0.453125 -1.375 0.453125 -3.3125q0 -2.703125 -0.890625 -4.140625q-0.890625 -1.453125 -2.15625 -1.9375q-0.90625 -0.359375 -2.9375 -0.359375l-3.609375 0l0 13.125zm27.316406 -4.0l2.28125 0.578125q-0.71875 2.796875 -2.578125 4.28125q-1.859375 1.46875 -4.546875 1.46875q-2.765625 0 -4.515625 -1.125q-1.734375 -1.140625 -2.640625 -3.28125q-0.90625 -2.15625 -0.90625 -4.609375q0 -2.6875 1.015625 -4.6875q1.03125 -2.0 2.921875 -3.03125q1.890625 -1.03125 4.171875 -1.03125q2.578125 0 4.328125 1.3125q1.765625 1.3125 2.453125 3.6875l-2.234375 0.53125q-0.609375 -1.875 -1.75 -2.734375q-1.125 -0.859375 -2.84375 -0.859375q-1.984375 0 -3.3125 0.953125q-1.328125 0.953125 -1.875 2.546875q-0.53125 1.59375 -0.53125 3.296875q0 2.1875 0.625 3.828125q0.640625 1.640625 1.984375 2.453125q1.359375 0.796875 2.921875 0.796875q1.921875 0 3.234375 -1.09375q1.328125 -1.109375 1.796875 -3.28125zm13.113281 -0.703125l0 -2.015625l7.28125 -0.015625l0 6.375q-1.671875 1.328125 -3.453125 2.015625q-1.78125 0.671875 -3.65625 0.671875q-2.53125 0 -4.609375 -1.078125q-2.0625 -1.09375 -3.125 -3.140625q-1.046875 -2.0625 -1.046875 -4.59375q0 -2.5 1.046875 -4.671875q1.046875 -2.171875 3.015625 -3.21875q1.96875 -1.0625 4.53125 -1.0625q1.875 0 3.375 0.609375q1.5 0.59375 2.359375 1.671875q0.859375 1.078125 1.296875 2.8125l-2.046875 0.5625q-0.390625 -1.3125 -0.96875 -2.0625q-0.5625 -0.75 -1.640625 -1.203125q-1.0625 -0.453125 -2.359375 -0.453125q-1.5625 0 -2.703125 0.484375q-1.125 0.46875 -1.828125 1.25q-0.6875 0.765625 -1.078125 1.6875q-0.65625 1.59375 -0.65625 3.453125q0 2.296875 0.78125 3.84375q0.796875 1.546875 2.3125 2.296875q1.515625 0.75 3.203125 0.75q1.484375 0 2.890625 -0.5625q1.40625 -0.5625 2.125 -1.21875l0 -3.1875l-5.046875 0zm11.746094 11.78125l-1.515625 0q3.5 -5.625 3.5 -11.265625q0 -2.203125 -0.5 -4.359375q-0.390625 -1.765625 -1.109375 -3.375q-0.453125 -1.0625 -1.890625 -3.515625l1.515625 0q2.203125 2.9375 3.25 5.90625q0.90625 2.546875 0.90625 5.34375q0 3.15625 -1.21875 6.109375q-1.203125 2.953125 -2.9375 5.15625z" fill-rule="nonzero"/><path fill="#b7b7b7" d="m62.125984 352.74585c0 -12.906952 10.463142 -23.370087 23.370079 -23.370087c6.1981277 0 12.142403 2.4622192 16.525139 6.84494c4.382744 4.3827515 6.84494 10.327026 6.84494 16.525146c0 12.906952 -10.463142 23.370087 -23.370079 23.370087c-12.906937 0 -23.370079 -10.463135 -23.370079 -23.370087z" fill-rule="evenodd"/><path fill="#ffffff" d="m92.16584 359.66583l-2.9375 0l-1.171875 -3.03125l-5.328125 0l-1.109375 3.03125l-2.859375 0l5.203125 -13.359375l2.84375 0l5.359375 13.359375zm-4.96875 -5.28125l-1.84375 -4.953125l-1.796875 4.953125l3.640625 0z" fill-rule="nonzero"/><path fill="#b7b7b7" d="m178.12073 307.25198c0 -12.906952 10.46315 -23.370087 23.370087 -23.370087c6.1981354 0 12.142395 2.4621887 16.525146 6.84494c4.382736 4.382721 6.844925 10.326996 6.844925 16.525146c0 12.906921 -10.463135 23.370056 -23.370071 23.370056c-12.906937 0 -23.370087 -10.463135 -23.370087 -23.370056z" fill-rule="evenodd"/><path fill="#ffffff" d="m196.11371 300.8126l5.34375 0q1.59375 0 2.359375 0.140625q0.78125 0.125 1.390625 0.546875q0.625 0.421875 1.03125 1.125q0.40625 0.6875 0.40625 1.546875q0 0.9375 -0.5 1.734375q-0.5 0.78125 -1.375 1.171875q1.21875 0.359375 1.875 1.21875q0.65625 0.84375 0.65625 2.0q0 0.921875 -0.421875 1.78125q-0.421875 0.859375 -1.15625 1.375q-0.734375 0.515625 -1.796875 0.625q-0.6875 0.078125 -3.265625 0.09375l-4.546875 0l0 -13.359375zm2.703125 2.234375l0 3.078125l1.765625 0q1.578125 0 1.953125 -0.046875q0.703125 -0.078125 1.09375 -0.46875q0.40625 -0.40625 0.40625 -1.046875q0 -0.625 -0.34375 -1.0q-0.34375 -0.390625 -1.015625 -0.484375q-0.40625 -0.03125 -2.3125 -0.03125l-1.546875 0zm0 5.296875l0 3.578125l2.5 0q1.453125 0 1.84375 -0.078125q0.609375 -0.109375 0.984375 -0.53125q0.375 -0.421875 0.375 -1.140625q0 -0.59375 -0.296875 -1.015625q-0.28125 -0.421875 -0.84375 -0.609375q-0.546875 -0.203125 -2.390625 -0.203125l-2.171875 0z" fill-rule="nonzero"/><path fill="#b7b7b7" d="m294.11548 352.74585c0 -12.906952 10.463135 -23.370087 23.370087 -23.370087c6.19812 0 12.142395 2.4622192 16.525146 6.84494c4.382721 4.3827515 6.84494 10.327026 6.84494 16.525146c0 12.906952 -10.463135 23.370087 -23.370087 23.370087c-12.906952 0 -23.370087 -10.463135 -23.370087 -23.370087z" fill-rule="evenodd"/><path fill="#ffffff" d="m312.09283 346.30646l4.9375 0q1.65625 0 2.53125 0.265625q1.1875 0.34375 2.015625 1.234375q0.84375 0.875 1.28125 2.15625q0.4375 1.28125 0.4375 3.15625q0 1.640625 -0.40625 2.84375q-0.5 1.453125 -1.4375 2.359375q-0.703125 0.671875 -1.890625 1.0625q-0.890625 0.28125 -2.390625 0.28125l-5.078125 0l0 -13.359375zm2.703125 2.265625l0 8.84375l2.015625 0q1.125 0 1.625 -0.125q0.65625 -0.171875 1.078125 -0.5625q0.4375 -0.390625 0.703125 -1.28125q0.28125 -0.90625 0.28125 -2.453125q0 -1.546875 -0.28125 -2.375q-0.265625 -0.828125 -0.765625 -1.28125q-0.484375 -0.46875 -1.234375 -0.640625q-0.5625 -0.125 -2.21875 -0.125l-1.203125 0z" fill-rule="nonzero"/><path fill="#b7b7b7" d="m178.12073 396.6168c0 -12.906921 10.46315 -23.370087 23.370087 -23.370087c6.1981354 0 12.142395 2.4622192 16.525146 6.84494c4.382736 4.3827515 6.844925 10.327026 6.844925 16.525146c0 12.906952 -10.463135 23.370087 -23.370071 23.370087c-12.906937 0 -23.370087 -10.463135 -23.370087 -23.370087z" fill-rule="evenodd"/><path fill="#ffffff" d="m204.66058 398.63055l2.609375 0.828125q-0.59375 2.1875 -2.0 3.25q-1.390625 1.0625 -3.546875 1.0625q-2.65625 0 -4.375 -1.8125q-1.703125 -1.828125 -1.703125 -4.984375q0 -3.328125 1.71875 -5.171875q1.71875 -1.84375 4.515625 -1.84375q2.453125 0 3.984375 1.4375q0.921875 0.859375 1.375 2.46875l-2.671875 0.640625q-0.234375 -1.046875 -0.984375 -1.640625q-0.75 -0.609375 -1.828125 -0.609375q-1.484375 0 -2.421875 1.078125q-0.921875 1.0625 -0.921875 3.4375q0 2.53125 0.90625 3.609375q0.921875 1.078125 2.375 1.078125q1.078125 0 1.84375 -0.671875q0.78125 -0.6875 1.125 -2.15625z" fill-rule="nonzero"/><path fill="#000000" fill-opacity="0.0" d="m102.0212 336.2207l76.09449 -28.97638" fill-rule="evenodd"/><path stroke="#000000" stroke-width="2.0" stroke-linejoin="round" stroke-linecap="butt" d="m102.0212 336.2207l69.689 -26.5372" fill-rule="evenodd"/><path fill="#000000" stroke="#000000" stroke-width="2.0" stroke-linecap="butt" d="m171.71022 309.6835l-1.3015289 2.9023132l4.974594 -4.3010254l-6.575409 0.09716797z" fill-rule="evenodd"/><path fill="#000000" fill-opacity="0.0" d="m102.0212 369.271l76.09449 27.338562" fill-rule="evenodd"/><path stroke="#000000" stroke-width="2.0" stroke-linejoin="round" stroke-linecap="butt" d="m102.0212 369.271l69.64399 25.021118" fill-rule="evenodd"/><path fill="#000000" stroke="#000000" stroke-width="2.0" stroke-linecap="butt" d="m171.66519 394.29208l-2.877182 1.3562622l6.576065 -0.02734375l-5.0551147 -4.206085z" fill-rule="evenodd"/><path fill="#000000" fill-opacity="0.0" d="m224.86089 307.25198l76.0945 28.976349" fill-rule="evenodd"/><path stroke="#000000" stroke-width="2.0" stroke-linejoin="round" stroke-linecap="butt" d="m224.86089 307.25198l69.68901 26.53717" fill-rule="evenodd"/><path fill="#000000" stroke="#000000" stroke-width="2.0" stroke-linecap="butt" d="m294.5499 333.78918l-2.9023132 1.3015137l6.575409 0.09716797l-4.9746094 -4.3010254z" fill-rule="evenodd"/><path fill="#000000" fill-opacity="0.0" d="m224.86089 396.6168l76.0945 -27.338562" fill-rule="evenodd"/><path stroke="#000000" stroke-width="2.0" stroke-linejoin="round" stroke-linecap="butt" d="m231.31139 394.29935l69.644 -25.021118" fill-rule="evenodd"/><path fill="#000000" stroke="#000000" stroke-width="2.0" stroke-linecap="butt" d="m231.3114 394.29932l1.3562317 -2.8771667l-5.05513 4.206085l6.576065 0.027313232z" fill-rule="evenodd"/><path fill="#000000" fill-opacity="0.0" d="m201.49081 373.2467l0 -42.614166" fill-rule="evenodd"/><path stroke="#000000" stroke-width="2.0" stroke-linejoin="round" stroke-linecap="butt" d="m201.49081 373.2467l0 -35.75998" fill-rule="evenodd"/><path fill="#000000" stroke="#000000" stroke-width="2.0" stroke-linecap="butt" d="m201.49081 337.48672l2.2491608 2.249176l-2.2491608 -6.1795654l-2.2491608 6.1795654z" fill-rule="evenodd"/><path fill="#000000" fill-opacity="0.0" d="m213.38379 330.49008l68.06299 0l0 37.858276l-68.06299 0z" fill-rule="evenodd"/><path fill="#6aa84f" d="m233.7097 353.86322l1.609375 0.21875q-0.265625 1.65625 -1.359375 2.609375q-1.078125 0.9375 -2.671875 0.9375q-1.984375 0 -3.1875 -1.296875q-1.203125 -1.296875 -1.203125 -3.71875q0 -1.578125 0.515625 -2.75q0.515625 -1.171875 1.578125 -1.75q1.0625 -0.59375 2.3125 -0.59375q1.578125 0 2.578125 0.796875q1.0 0.796875 1.28125 2.265625l-1.59375 0.234375q-0.234375 -0.96875 -0.8125 -1.453125q-0.578125 -0.5 -1.390625 -0.5q-1.234375 0 -2.015625 0.890625q-0.78125 0.890625 -0.78125 2.8125q0 1.953125 0.75 2.84375q0.75 0.875 1.953125 0.875q0.96875 0 1.609375 -0.59375q0.65625 -0.59375 0.828125 -1.828125zm2.9375 7.265625l-0.1875 -1.53125q0.546875 0.140625 0.9375 0.140625q0.546875 0 0.875 -0.1875q0.328125 -0.171875 0.546875 -0.5q0.15625 -0.25 0.5 -1.21875q0.046875 -0.140625 0.140625 -0.40625l-3.671875 -9.6875l1.765625 0l2.015625 5.59375q0.390625 1.078125 0.703125 2.25q0.28125 -1.125 0.671875 -2.203125l2.078125 -5.640625l1.640625 0l-3.6875 9.828125q-0.59375 1.609375 -0.921875 2.203125q-0.4375 0.8125 -1.0 1.1875q-0.5625 0.375 -1.34375 0.375q-0.484375 0 -1.0625 -0.203125zm15.71875 -7.265625l1.609375 0.21875q-0.265625 1.65625 -1.359375 2.609375q-1.078125 0.9375 -2.671875 0.9375q-1.984375 0 -3.1875 -1.296875q-1.203125 -1.296875 -1.203125 -3.71875q0 -1.578125 0.515625 -2.75q0.515625 -1.171875 1.578125 -1.75q1.0625 -0.59375 2.3125 -0.59375q1.578125 0 2.578125 0.796875q1.0 0.796875 1.28125 2.265625l-1.59375 0.234375q-0.234375 -0.96875 -0.8125 -1.453125q-0.578125 -0.5 -1.390625 -0.5q-1.234375 0 -2.015625 0.890625q-0.78125 0.890625 -0.78125 2.8125q0 1.953125 0.75 2.84375q0.75 0.875 1.953125 0.875q0.96875 0 1.609375 -0.59375q0.65625 -0.59375 0.828125 -1.828125zm2.96875 3.546875l0 -13.359375l1.6406403 0l0 13.359375l-1.6406403 0zm10.816696 -3.109375l1.6875 0.203125q-0.40625 1.484375 -1.484375 2.3125q-1.078125 0.8125 -2.765625 0.8125q-2.125 0 -3.375 -1.296875q-1.234375 -1.3125 -1.234375 -3.671875q0 -2.453125 1.25 -3.796875q1.265625 -1.34375 3.265625 -1.34375q1.9375 0 3.15625 1.328125q1.234375 1.3125 1.234375 3.703125q0 0.15625 0 0.4375l-7.21875 0q0.09375 1.59375 0.90625 2.453125q0.8125 0.84375 2.015625 0.84375q0.90625 0 1.546875 -0.46875q0.640625 -0.484375 1.015625 -1.515625zm-5.390625 -2.65625l5.40625 0q-0.109375 -1.21875 -0.625 -1.828125q-0.78125 -0.953125 -2.03125 -0.953125q-1.125 0 -1.90625 0.765625q-0.765625 0.75 -0.84375 2.015625z" fill-rule="nonzero"/><path fill="#000000" fill-opacity="0.0" d="m278.01123 347.47882c-6.897827 -13.795685 -27.121506 -21.898132 -42.246704 -18.876648c-13.668152 2.7304382 -20.705292 24.084839 -17.97638 37.753296c3.712326 18.594238 48.1575 11.570648 56.62729 -5.3937073" fill-rule="evenodd"/><path stroke="#6aa84f" stroke-width="2.0" stroke-linejoin="round" stroke-linecap="butt" d="m274.17728 341.79727l-0.05831909 -0.06774902c-0.08163452 -0.09362793 -0.16390991 -0.18685913 -0.24679565 -0.27972412c-0.33166504 -0.3713684 -0.67349243 -0.73635864 -1.0249634 -1.0947876c-0.7029724 -0.7168579 -1.4444885 -1.4075012 -2.2200623 -2.0706177c-3.102295 -2.6524353 -6.7496033 -4.8641357 -10.653992 -6.550354c-7.8088226 -3.3723755 -16.646027 -4.642639 -24.208633 -3.1318665c-13.668137 2.7304382 -20.705276 24.084839 -17.976364 37.753296c3.712326 18.594208 48.1575 11.570679 56.62729 -5.3936768" fill-rule="evenodd"/><path fill="#6aa84f" stroke="#6aa84f" stroke-width="2.0" stroke-linecap="butt" d="m274.17728 341.79724l-3.1224976 -0.6062622l5.320984 3.8642578l-1.5921936 -6.3804626z" fill-rule="evenodd"/><path fill="#000000" fill-opacity="0.0" d="m447.7743 429.66666l291.43304 0l0 75.49606l-291.43304 0z" fill-rule="evenodd"/><path fill="#000000" d="m473.97324 461.70667l0 -17.1875l5.90625 0q2.015625 0 3.0625 0.25q1.484375 0.34375 2.515625 1.234375q1.359375 1.140625 2.03125 2.9375q0.6875 1.78125 0.6875 4.078125q0 1.953125 -0.46875 3.46875q-0.453125 1.515625 -1.171875 2.515625q-0.703125 0.984375 -1.5625 1.546875q-0.84375 0.5625 -2.046875 0.859375q-1.203125 0.296875 -2.765625 0.296875l-6.1875 0zm2.265625 -2.03125l3.671875 0q1.703125 0 2.65625 -0.3125q0.96875 -0.3125 1.546875 -0.890625q0.8125 -0.8125 1.265625 -2.171875q0.453125 -1.375 0.453125 -3.3125q0 -2.703125 -0.890625 -4.140625q-0.890625 -1.453125 -2.15625 -1.9375q-0.90625 -0.359375 -2.9375 -0.359375l-3.609375 0l0 13.125zm14.800781 -12.71875l0 -2.4375l2.109375 0l0 2.4375l-2.109375 0zm0 14.75l0 -12.453125l2.109375 0l0 12.453125l-2.109375 0zm5.3007812 0l0 -12.453125l1.890625 0l0 1.890625q0.734375 -1.328125 1.34375 -1.75q0.625 -0.421875 1.359375 -0.421875q1.0625 0 2.171875 0.6875l-0.734375 1.953125q-0.765625 -0.453125 -1.546875 -0.453125q-0.6875 0 -1.25 0.421875q-0.546875 0.40625 -0.78125 1.140625q-0.34375 1.125 -0.34375 2.46875l0 6.515625l-2.109375 0zm16.539093 -4.015625l2.171875 0.28125q-0.515625 1.90625 -1.90625 2.96875q-1.3906555 1.046875 -3.5625305 1.046875q-2.734375 0 -4.34375 -1.671875q-1.59375 -1.6875 -1.59375 -4.734375q0 -3.140625 1.609375 -4.875q1.625 -1.734375 4.203125 -1.734375q2.5 0 4.0781555 1.703125q1.59375 1.703125 1.59375 4.78125q0 0.1875 -0.015625 0.5625l-9.2812805 0q0.109375 2.046875 1.15625 3.140625q1.046875 1.09375 2.609375 1.09375q1.15625 0 1.96875 -0.609375q0.8281555 -0.609375 1.3125305 -1.953125zm-6.9375305 -3.40625l6.9531555 0q-0.140625 -1.5625 -0.796875 -2.359375q-1.0000305 -1.21875 -2.6094055 -1.21875q-1.453125 0 -2.453125 0.984375q-0.984375 0.96875 -1.09375 2.59375zm19.878937 2.859375l2.078125 0.265625q-0.34375 2.15625 -1.75 3.375q-1.390625 1.203125 -3.4375 1.203125q-2.546875 0 -4.109375 -1.671875q-1.546875 -1.671875 -1.546875 -4.78125q0 -2.015625 0.671875 -3.53125q0.671875 -1.515625 2.03125 -2.265625q1.359375 -0.765625 2.96875 -0.765625q2.03125 0 3.3125 1.03125q1.296875 1.03125 1.65625 2.90625l-2.046875 0.328125q-0.296875 -1.265625 -1.046875 -1.890625q-0.734375 -0.640625 -1.796875 -0.640625q-1.59375 0 -2.59375 1.15625q-0.984375 1.140625 -0.984375 3.609375q0 2.5 0.953125 3.640625q0.96875 1.140625 2.515625 1.140625q1.234375 0 2.0625 -0.765625q0.84375 -0.765625 1.0625 -2.34375zm8.484375 2.671875l0.3125 1.859375q-0.890625 0.203125 -1.59375 0.203125q-1.15625 0 -1.796875 -0.359375q-0.625 -0.375 -0.890625 -0.96875q-0.25 -0.59375 -0.25 -2.484375l0 -7.171875l-1.546875 0l0 -1.640625l1.546875 0l0 -3.078125l2.09375 -1.265625l0 4.34375l2.125 0l0 1.640625l-2.125 0l0 7.28125q0 0.90625 0.109375 1.171875q0.125 0.25 0.375 0.40625q0.25 0.140625 0.71875 0.140625q0.34375 0 0.921875 -0.078125zm10.589844 -2.125l2.171875 0.28125q-0.515625 1.90625 -1.90625 2.96875q-1.390625 1.046875 -3.5625 1.046875q-2.734375 0 -4.34375 -1.671875q-1.59375 -1.6875 -1.59375 -4.734375q0 -3.140625 1.609375 -4.875q1.625 -1.734375 4.203125 -1.734375q2.5 0 4.078125 1.703125q1.59375 1.703125 1.59375 4.78125q0 0.1875 -0.015625 0.5625l-9.28125 0q0.109375 2.046875 1.15625 3.140625q1.046875 1.09375 2.609375 1.09375q1.15625 0 1.96875 -0.609375q0.828125 -0.609375 1.3125 -1.953125zm-6.9375 -3.40625l6.953125 0q-0.140625 -1.5625 -0.796875 -2.359375q-1.0 -1.21875 -2.609375 -1.21875q-1.453125 0 -2.453125 0.984375q-0.984375 0.96875 -1.09375 2.59375zm19.832031 7.421875l0 -1.578125q-1.1875 1.859375 -3.484375 1.859375q-1.484375 0 -2.734375 -0.8125q-1.25 -0.828125 -1.9375 -2.296875q-0.671875 -1.46875 -0.671875 -3.390625q0 -1.859375 0.609375 -3.375q0.625 -1.515625 1.859375 -2.328125q1.25 -0.8125 2.78125 -0.8125q1.125 0 2.0 0.484375q0.890625 0.46875 1.4375 1.234375l0 -6.171875l2.09375 0l0 17.1875l-1.953125 0zm-6.671875 -6.21875q0 2.390625 1.0 3.578125q1.015625 1.1875 2.390625 1.1875q1.390625 0 2.34375 -1.125q0.96875 -1.140625 0.96875 -3.453125q0 -2.5625 -0.984375 -3.75q-0.984375 -1.203125 -2.421875 -1.203125q-1.40625 0 -2.359375 1.15625q-0.9375 1.140625 -0.9375 3.609375zm15.675781 6.21875l6.59375 -17.1875l2.453125 0l7.03125 17.1875l-2.59375 0l-2.0 -5.203125l-7.1875 0l-1.890625 5.203125l-2.40625 0zm4.953125 -7.0625l5.828125 0l-1.796875 -4.75q-0.8125 -2.171875 -1.21875 -3.5625q-0.328125 1.65625 -0.921875 3.28125l-1.890625 5.03125zm20.789062 2.5l2.078125 0.265625q-0.34375 2.15625 -1.75 3.375q-1.390625 1.203125 -3.4375 1.203125q-2.546875 0 -4.109375 -1.671875q-1.546875 -1.671875 -1.546875 -4.78125q0 -2.015625 0.671875 -3.53125q0.671875 -1.515625 2.03125 -2.265625q1.359375 -0.765625 2.96875 -0.765625q2.03125 0 3.3125 1.03125q1.296875 1.03125 1.65625 2.90625l-2.046875 0.328125q-0.296875 -1.265625 -1.046875 -1.890625q-0.734375 -0.640625 -1.796875 -0.640625q-1.59375 0 -2.59375 1.15625q-0.984375 1.140625 -0.984375 3.609375q0 2.5 0.953125 3.640625q0.96875 1.140625 2.515625 1.140625q1.234375 0 2.0625 -0.765625q0.84375 -0.765625 1.0625 -2.34375zm3.78125 9.359375l-0.234375 -1.984375q0.703125 0.1875 1.21875 0.1875q0.703125 0 1.125 -0.234375q0.421875 -0.234375 0.6875 -0.65625q0.203125 -0.3125 0.640625 -1.5625q0.0625 -0.1875 0.1875 -0.515625l-4.71875 -12.484375l2.265625 0l2.59375 7.21875q0.5 1.359375 0.90625 2.875q0.359375 -1.453125 0.859375 -2.828125l2.671875 -7.265625l2.109375 0l-4.734375 12.671875q-0.765625 2.046875 -1.1875 2.8125q-0.5625 1.046875 -1.296875 1.53125q-0.71875 0.484375 -1.734375 0.484375q-0.609375 0 -1.359375 -0.25zm20.21875 -9.359375l2.078125 0.265625q-0.34375 2.15625 -1.75 3.375q-1.390625 1.203125 -3.4375 1.203125q-2.546875 0 -4.109375 -1.671875q-1.546875 -1.671875 -1.546875 -4.78125q0 -2.015625 0.671875 -3.53125q0.671875 -1.515625 2.03125 -2.265625q1.359375 -0.765625 2.96875 -0.765625q2.03125 0 3.3125 1.03125q1.296875 1.03125 1.65625 2.90625l-2.046875 0.328125q-0.296875 -1.265625 -1.046875 -1.890625q-0.734375 -0.640625 -1.796875 -0.640625q-1.59375 0 -2.59375 1.15625q-0.984375 1.140625 -0.984375 3.609375q0 2.5 0.953125 3.640625q0.96875 1.140625 2.515625 1.140625q1.234375 0 2.0625 -0.765625q0.84375 -0.765625 1.0625 -2.34375zm3.828125 4.5625l0 -17.1875l2.109375 0l0 17.1875l-2.109375 0zm5.3945312 -14.75l0 -2.4375l2.109375 0l0 2.4375l-2.109375 0zm0 14.75l0 -12.453125l2.109375 0l0 12.453125l-2.109375 0zm13.441406 -4.5625l2.078125 0.265625q-0.34375 2.15625 -1.75 3.375q-1.390625 1.203125 -3.4375 1.203125q-2.546875 0 -4.109375 -1.671875q-1.546875 -1.671875 -1.546875 -4.78125q0 -2.015625 0.671875 -3.53125q0.671875 -1.515625 2.03125 -2.265625q1.359375 -0.765625 2.96875 -0.765625q2.03125 0 3.3125 1.03125q1.296875 1.03125 1.65625 2.90625l-2.046875 0.328125q-0.296875 -1.265625 -1.046875 -1.890625q-0.734375 -0.640625 -1.796875 -0.640625q-1.59375 0 -2.59375 1.15625q-0.984375 1.140625 -0.984375 3.609375q0 2.5 0.953125 3.640625q0.96875 1.140625 2.515625 1.140625q1.234375 0 2.0625 -0.765625q0.84375 -0.765625 1.0625 -2.34375zm18.855469 -2.171875l0 -2.015625l7.28125 -0.015625l0 6.375q-1.671875 1.328125 -3.453125 2.015625q-1.78125 0.671875 -3.65625 0.671875q-2.53125 0 -4.609375 -1.078125q-2.0625 -1.09375 -3.125 -3.140625q-1.046875 -2.0625 -1.046875 -4.59375q0 -2.5 1.046875 -4.671875q1.046875 -2.171875 3.015625 -3.21875q1.96875 -1.0625 4.53125 -1.0625q1.875 0 3.375 0.609375q1.5 0.59375 2.359375 1.671875q0.859375 1.078125 1.296875 2.8125l-2.046875 0.5625q-0.390625 -1.3125 -0.96875 -2.0625q-0.5625 -0.75 -1.640625 -1.203125q-1.0625 -0.453125 -2.359375 -0.453125q-1.5625 0 -2.703125 0.484375q-1.125 0.46875 -1.828125 1.25q-0.6875 0.765625 -1.078125 1.6875q-0.65625 1.59375 -0.65625 3.453125q0 2.296875 0.78125 3.84375q0.796875 1.546875 2.3125 2.296875q1.515625 0.75 3.203125 0.75q1.484375 0 2.890625 -0.5625q1.40625 -0.5625 2.125 -1.21875l0 -3.1875l-5.046875 0zm10.339844 6.734375l0 -12.453125l1.890625 0l0 1.890625q0.734375 -1.328125 1.34375 -1.75q0.625 -0.421875 1.359375 -0.421875q1.0625 0 2.171875 0.6875l-0.734375 1.953125q-0.765625 -0.453125 -1.546875 -0.453125q-0.6875 0 -1.25 0.421875q-0.546875 0.40625 -0.78125 1.140625q-0.34375 1.125 -0.34375 2.46875l0 6.515625l-2.109375 0zm16.132812 -1.53125q-1.171875 0.984375 -2.265625 1.40625q-1.078125 0.40625 -2.3125 0.40625q-2.046875 0 -3.15625 -1.0q-1.09375 -1.0 -1.09375 -2.5625q0 -0.921875 0.40625 -1.671875q0.421875 -0.75 1.09375 -1.203125q0.671875 -0.46875 1.515625 -0.703125q0.625 -0.15625 1.875 -0.3125q2.5625 -0.3125 3.765625 -0.734375q0.015625 -0.421875 0.015625 -0.546875q0 -1.28125 -0.609375 -1.8125q-0.796875 -0.71875 -2.390625 -0.71875q-1.5 0 -2.203125 0.53125q-0.703125 0.515625 -1.046875 1.84375l-2.0625 -0.28125q0.28125 -1.328125 0.921875 -2.140625q0.640625 -0.8125 1.859375 -1.25q1.21875 -0.453125 2.828125 -0.453125q1.59375 0 2.59375 0.375q1.0 0.375 1.46875 0.953125q0.46875 0.5625 0.65625 1.4375q0.09375 0.53125 0.09375 1.9375l0 2.8125q0 2.9375 0.140625 3.71875q0.140625 0.78125 0.53125 1.5l-2.203125 0q-0.328125 -0.65625 -0.421875 -1.53125zm-0.171875 -4.71875q-1.15625 0.46875 -3.453125 0.796875q-1.296875 0.1875 -1.84375 0.421875q-0.53125 0.234375 -0.828125 0.6875q-0.28125 0.453125 -0.28125 1.0q0 0.84375 0.625 1.40625q0.640625 0.5625 1.875 0.5625q1.21875 0 2.171875 -0.53125q0.953125 -0.53125 1.390625 -1.453125q0.34375 -0.71875 0.34375 -2.109375l0 -0.78125zm5.3945312 11.015625l0 -17.21875l1.921875 0l0 1.625q0.6875 -0.953125 1.53125 -1.421875q0.859375 -0.484375 2.078125 -0.484375q1.59375 0 2.8125 0.828125q1.21875 0.8125 1.84375 2.3125q0.625 1.5 0.625 3.28125q0 1.90625 -0.6875 3.4375q-0.6875 1.53125 -2.0 2.34375q-1.296875 0.8125 -2.734375 0.8125q-1.0625 0 -1.90625 -0.4375q-0.828125 -0.453125 -1.375 -1.140625l0 6.0625l-2.109375 0zm1.921875 -10.921875q0 2.40625 0.96875 3.5625q0.96875 1.140625 2.359375 1.140625q1.40625 0 2.40625 -1.1875q1.0 -1.1875 1.0 -3.6875q0 -2.375 -0.984375 -3.5625q-0.96875 -1.1875 -2.328125 -1.1875q-1.359375 0 -2.390625 1.265625q-1.03125 1.25 -1.03125 3.65625zm11.425781 6.15625l0 -17.1875l2.109375 0l0 6.171875q1.484375 -1.71875 3.734375 -1.71875q1.375 0 2.390625 0.546875q1.03125 0.546875 1.46875 1.515625q0.4375 0.953125 0.4375 2.78125l0 7.890625l-2.109375 0l0 -7.890625q0 -1.578125 -0.6875 -2.296875q-0.6875 -0.71875 -1.9375 -0.71875q-0.9375 0 -1.765625 0.484375q-0.828125 0.484375 -1.1875 1.3125q-0.34375 0.828125 -0.34375 2.296875l0 6.8125l-2.109375 0z" fill-rule="nonzero"/><path fill="#000000" d="m565.1041 495.55356q-1.734375 -2.203125 -2.953125 -5.15625q-1.203125 -2.953125 -1.203125 -6.109375q0 -2.796875 0.90625 -5.34375q1.046875 -2.96875 3.25 -5.90625l1.515625 0q-1.421875 2.4375 -1.875 3.46875q-0.71875 1.625 -1.125 3.375q-0.5 2.203125 -0.5 4.40625q0 5.640625 3.5 11.265625l-1.515625 0zm4.2421875 -5.046875l0 -17.1875l5.90625 0q2.015625 0 3.0625 0.25q1.484375 0.34375 2.515625 1.234375q1.359375 1.140625 2.03125 2.9375q0.6875 1.78125 0.6875 4.078125q0 1.953125 -0.46875 3.46875q-0.453125 1.515625 -1.171875 2.515625q-0.703125 0.984375 -1.5625 1.546875q-0.84375 0.5625 -2.046875 0.859375q-1.203125 0.296875 -2.765625 0.296875l-6.1875 0zm2.265625 -2.03125l3.671875 0q1.703125 0 2.65625 -0.3125q0.96875 -0.3125 1.546875 -0.890625q0.8125 -0.8125 1.265625 -2.171875q0.453125 -1.375 0.453125 -3.3125q0 -2.703125 -0.890625 -4.140625q-0.890625 -1.453125 -2.15625 -1.9375q-0.90625 -0.359375 -2.9375 -0.359375l-3.609375 0l0 13.125zm13.175781 2.03125l6.59375 -17.1875l2.453125 0l7.03125 17.1875l-2.59375 0l-2.0 -5.203125l-7.1875 0l-1.890625 5.203125l-2.40625 0zm4.953125 -7.0625l5.828125 0l-1.796875 -4.75q-0.8125 -2.171875 -1.21875 -3.5625q-0.328125 1.65625 -0.921875 3.28125l-1.890625 5.03125zm20.976562 0.328125l0 -2.015625l7.28125 -0.015625l0 6.375q-1.671875 1.328125 -3.453125 2.015625q-1.78125 0.671875 -3.65625 0.671875q-2.53125 0 -4.609375 -1.078125q-2.0625 -1.09375 -3.125 -3.140625q-1.046875 -2.0625 -1.046875 -4.59375q0 -2.5 1.046875 -4.671875q1.046875 -2.171875 3.015625 -3.21875q1.96875 -1.0625 4.53125 -1.0625q1.875 0 3.375 0.609375q1.5 0.59375 2.359375 1.671875q0.859375 1.078125 1.296875 2.8125l-2.046875 0.5625q-0.390625 -1.3125 -0.96875 -2.0625q-0.5625 -0.75 -1.640625 -1.203125q-1.0625 -0.453125 -2.359375 -0.453125q-1.5625 0 -2.703125 0.484375q-1.125 0.46875 -1.828125 1.25q-0.6875 0.765625 -1.078125 1.6875q-0.65625 1.59375 -0.65625 3.453125q0 2.296875 0.78125 3.84375q0.796875 1.546875 2.3125 2.296875q1.515625 0.75 3.203125 0.75q1.484375 0 2.890625 -0.5625q1.40625 -0.5625 2.125 -1.21875l0 -3.1875l-5.046875 0zm11.746094 11.78125l-1.515625 0q3.5 -5.625 3.5 -11.265625q0 -2.203125 -0.5 -4.359375q-0.390625 -1.765625 -1.109375 -3.375q-0.453125 -1.0625 -1.890625 -3.515625l1.515625 0q2.203125 2.9375 3.25 5.90625q0.90625 2.546875 0.90625 5.34375q0 3.15625 -1.21875 6.109375q-1.203125 2.953125 -2.9375 5.15625z" fill-rule="nonzero"/><path fill="#b7b7b7" d="m454.12598 352.74585c0 -12.906952 10.463135 -23.370087 23.370087 -23.370087c6.19812 0 12.142395 2.4622192 16.525146 6.84494c4.382721 4.3827515 6.84494 10.327026 6.84494 16.525146c0 12.906952 -10.463135 23.370087 -23.370087 23.370087c-12.906952 0 -23.370087 -10.463135 -23.370087 -23.370087z" fill-rule="evenodd"/><path fill="#ffffff" d="m484.16583 359.66583l-2.9375 0l-1.171875 -3.03125l-5.328125 0l-1.109375 3.03125l-2.859375 0l5.203125 -13.359375l2.84375 0l5.359375 13.359375zm-4.96875 -5.28125l-1.84375 -4.953125l-1.796875 4.953125l3.640625 0z" fill-rule="nonzero"/><path fill="#b7b7b7" d="m570.1207 307.25198c0 -12.906952 10.463135 -23.370087 23.370056 -23.370087c6.198181 0 12.142456 2.4621887 16.525146 6.84494c4.3827515 4.382721 6.8449707 10.326996 6.8449707 16.525146c0 12.906921 -10.463135 23.370056 -23.370117 23.370056c-12.906921 0 -23.370056 -10.463135 -23.370056 -23.370056z" fill-rule="evenodd"/><path fill="#ffffff" d="m588.1137 300.8126l5.34375 0q1.59375 0 2.359375 0.140625q0.78125 0.125 1.390625 0.546875q0.625 0.421875 1.03125 1.125q0.40625 0.6875 0.40625 1.546875q0 0.9375 -0.5 1.734375q-0.5 0.78125 -1.375 1.171875q1.21875 0.359375 1.875 1.21875q0.65625 0.84375 0.65625 2.0q0 0.921875 -0.421875 1.78125q-0.421875 0.859375 -1.15625 1.375q-0.734375 0.515625 -1.796875 0.625q-0.6875 0.078125 -3.265625 0.09375l-4.546875 0l0 -13.359375zm2.703125 2.234375l0 3.078125l1.765625 0q1.578125 0 1.953125 -0.046875q0.703125 -0.078125 1.09375 -0.46875q0.40625 -0.40625 0.40625 -1.046875q0 -0.625 -0.34375 -1.0q-0.34375 -0.390625 -1.015625 -0.484375q-0.40625 -0.03125 -2.3125 -0.03125l-1.546875 0zm0 5.296875l0 3.578125l2.5 0q1.453125 0 1.84375 -0.078125q0.609375 -0.109375 0.984375 -0.53125q0.375 -0.421875 0.375 -1.140625q0 -0.59375 -0.296875 -1.015625q-0.28125 -0.421875 -0.84375 -0.609375q-0.546875 -0.203125 -2.390625 -0.203125l-2.171875 0z" fill-rule="nonzero"/><path fill="#b7b7b7" d="m686.1155 352.74585c0 -12.906952 10.463135 -23.370087 23.370056 -23.370087c6.198181 0 12.142456 2.4622192 16.525146 6.84494c4.3827515 4.3827515 6.8449707 10.327026 6.8449707 16.525146c0 12.906952 -10.463135 23.370087 -23.370117 23.370087c-12.906921 0 -23.370056 -10.463135 -23.370056 -23.370087z" fill-rule="evenodd"/><path fill="#ffffff" d="m704.09283 346.30646l4.9375 0q1.65625 0 2.53125 0.265625q1.1875 0.34375 2.015625 1.234375q0.84375 0.875 1.28125 2.15625q0.4375 1.28125 0.4375 3.15625q0 1.640625 -0.40625 2.84375q-0.5 1.453125 -1.4375 2.359375q-0.703125 0.671875 -1.890625 1.0625q-0.890625 0.28125 -2.390625 0.28125l-5.078125 0l0 -13.359375zm2.703125 2.265625l0 8.84375l2.015625 0q1.125 0 1.625 -0.125q0.65625 -0.171875 1.078125 -0.5625q0.4375 -0.390625 0.703125 -1.28125q0.28125 -0.90625 0.28125 -2.453125q0 -1.546875 -0.28125 -2.375q-0.265625 -0.828125 -0.765625 -1.28125q-0.484375 -0.46875 -1.234375 -0.640625q-0.5625 -0.125 -2.21875 -0.125l-1.203125 0z" fill-rule="nonzero"/><path fill="#b7b7b7" d="m570.1207 396.6168c0 -12.906921 10.463135 -23.370087 23.370056 -23.370087c6.198181 0 12.142456 2.4622192 16.525146 6.84494c4.3827515 4.3827515 6.8449707 10.327026 6.8449707 16.525146c0 12.906952 -10.463135 23.370087 -23.370117 23.370087c-12.906921 0 -23.370056 -10.463135 -23.370056 -23.370087z" fill-rule="evenodd"/><path fill="#ffffff" d="m596.6606 398.63055l2.609375 0.828125q-0.59375 2.1875 -2.0 3.25q-1.390625 1.0625 -3.546875 1.0625q-2.65625 0 -4.375 -1.8125q-1.703125 -1.828125 -1.703125 -4.984375q0 -3.328125 1.71875 -5.171875q1.71875 -1.84375 4.515625 -1.84375q2.453125 0 3.984375 1.4375q0.921875 0.859375 1.375 2.46875l-2.671875 0.640625q-0.234375 -1.046875 -0.984375 -1.640625q-0.75 -0.609375 -1.828125 -0.609375q-1.484375 0 -2.421875 1.078125q-0.921875 1.0625 -0.921875 3.4375q0 2.53125 0.90625 3.609375q0.921875 1.078125 2.375 1.078125q1.078125 0 1.84375 -0.671875q0.78125 -0.6875 1.125 -2.15625z" fill-rule="nonzero"/><path fill="#000000" fill-opacity="0.0" d="m494.0212 336.2207l76.09451 -28.97638" fill-rule="evenodd"/><path stroke="#000000" stroke-width="2.0" stroke-linejoin="round" stroke-linecap="butt" d="m500.42667 333.78152l69.688995 -26.5372" fill-rule="evenodd"/><path fill="#000000" stroke="#000000" stroke-width="2.0" stroke-linecap="butt" d="m500.42667 333.78152l1.3015442 -2.9023438l-4.9746094 4.3010254l6.575409 -0.09716797z" fill-rule="evenodd"/><path fill="#000000" fill-opacity="0.0" d="m494.0212 369.271l76.09451 27.338562" fill-rule="evenodd"/><path stroke="#000000" stroke-width="2.0" stroke-linejoin="round" stroke-linecap="butt" d="m500.4717 371.58847l69.64395 25.021118" fill-rule="evenodd"/><path fill="#000000" stroke="#000000" stroke-width="2.0" stroke-linecap="butt" d="m500.4717 371.58847l2.8771667 -1.3562317l-6.5760803 0.02734375l5.0551453 4.206085z" fill-rule="evenodd"/><path fill="#000000" fill-opacity="0.0" d="m616.8609 307.25198l76.09448 28.976349" fill-rule="evenodd"/><path stroke="#000000" stroke-width="2.0" stroke-linejoin="round" stroke-linecap="butt" d="m623.26636 309.69116l69.689026 26.53717" fill-rule="evenodd"/><path fill="#000000" stroke="#000000" stroke-width="2.0" stroke-linecap="butt" d="m623.26636 309.69113l2.9023438 -1.3015137l-6.5753784 -0.09716797l4.9745483 4.3010254z" fill-rule="evenodd"/><path fill="#000000" fill-opacity="0.0" d="m616.8609 396.6168l76.09448 -27.338562" fill-rule="evenodd"/><path stroke="#000000" stroke-width="2.0" stroke-linejoin="round" stroke-linecap="butt" d="m623.3114 394.29935l69.64398 -25.021118" fill-rule="evenodd"/><path fill="#000000" stroke="#000000" stroke-width="2.0" stroke-linecap="butt" d="m623.3114 394.29932l1.3562012 -2.8771667l-5.0551147 4.206085l6.576111 0.027313232z" fill-rule="evenodd"/><path fill="#000000" fill-opacity="0.0" d="m692.96045 102.90878l-76.09454 27.338593" fill-rule="evenodd"/><path stroke="#000000" stroke-width="2.0" stroke-linejoin="round" stroke-linecap="butt" d="m692.9604 102.90878l-69.64392 25.021103" fill-rule="evenodd"/><path fill="#000000" stroke="#000000" stroke-width="2.0" stroke-linecap="butt" d="m623.31647 127.929886l1.3562012 -2.877182l-5.0551147 4.206085l6.57605 0.027328491z" fill-rule="evenodd"/></g></svg>